<svg xmlns="http://www.w3.org/2000/svg" version="1.1" xmlns:xlink="http://www.w3.org/1999/xlink" xmlns:svgjs="http://svgjs.dev/svgjs" width="1000" height="1000" viewBox="0 0 1000 1000"><rect width="1000" height="1000" fill="#010536"></rect><g transform="matrix(0.7,0,0,0.7,149.57575757575756,282.1265587044535)"><svg viewBox="0 0 396 247" data-background-color="#010536" preserveAspectRatio="xMidYMid meet" height="623" width="1000" xmlns="http://www.w3.org/2000/svg" xmlns:xlink="http://www.w3.org/1999/xlink"><g id="tight-bounds" transform="matrix(1,0,0,1,0.2400000000000091,-0.09999999999999432)"><svg viewBox="0 0 395.52 247.2" height="247.2" width="395.52"><g><svg></svg></g><g><svg viewBox="0 0 395.52 247.2" height="247.2" width="395.52"><g transform="matrix(1,0,0,1,75.54432,99.19616908059024)"><svg viewBox="0 0 244.43135999999998 48.80766183881952" height="48.80766183881952" width="244.43135999999998"><g><svg viewBox="0 0 244.43135999999998 48.80766183881952" height="48.80766183881952" width="244.43135999999998"><g><svg viewBox="0 0 244.43135999999998 48.80766183881952" height="48.80766183881952" width="244.43135999999998"><g><svg viewBox="0 0 244.43135999999998 48.80766183881952" height="48.80766183881952" width="244.43135999999998"><g id="textblocktransform"><svg viewBox="0 0 244.43135999999998 48.80766183881952" height="48.80766183881952" width="244.43135999999998" id="textblock"><g><svg viewBox="0 0 244.43135999999998 48.80766183881952" height="48.80766183881952" width="244.43135999999998"><g transform="matrix(1,0,0,1,0,0)"><svg width="244.43135999999998" viewBox="3.0799999237060547 -38.650001525878906 258.09002685546875 51.540000915527344" height="48.80766183881952" data-palette-color="#fbfbf8"><path d="M3.08-5.08L7.2-11.35Q9.28-10.18 11.41-9.24 13.55-8.3 15.84-7.65 18.14-7.01 20.67-6.67 23.19-6.32 26.05-6.32L26.05-6.32Q29.49-6.32 31.91-6.77 34.33-7.23 35.85-8.02 37.38-8.81 38.07-9.91 38.77-11.01 38.77-12.3L38.77-12.3Q38.77-14.38 37.04-15.59 35.3-16.8 31.69-16.8L31.69-16.8Q30.1-16.8 28.34-16.59 26.59-16.38 24.79-16.14 23-15.89 21.25-15.69 19.51-15.48 17.97-15.48L17.97-15.48Q15.41-15.48 13.05-16.14 10.69-16.8 8.87-18.12 7.06-19.43 5.98-21.41 4.91-23.39 4.91-26.03L4.91-26.03Q4.91-27.59 5.33-29.13 5.76-30.66 6.7-32.07 7.64-33.47 9.13-34.68 10.62-35.89 12.73-36.77 14.84-37.65 17.61-38.15 20.39-38.65 23.93-38.65L23.93-38.65Q26.49-38.65 29.08-38.37 31.67-38.09 34.12-37.57 36.57-37.06 38.84-36.34 41.11-35.62 43.07-34.74L43.07-34.74 39.67-28.49Q38.06-29.2 36.21-29.8 34.35-30.4 32.32-30.83 30.3-31.27 28.14-31.53 25.98-31.79 23.73-31.79L23.73-31.79Q20.53-31.79 18.47-31.32 16.41-30.86 15.19-30.14 13.96-29.42 13.49-28.53 13.01-27.64 13.01-26.76L13.01-26.76Q13.01-25.05 14.55-23.96 16.09-22.88 19.24-22.88L19.24-22.88Q20.51-22.88 22.16-23.06 23.8-23.24 25.62-23.46 27.44-23.68 29.33-23.86 31.23-24.05 33.01-24.05L33.01-24.05Q36.38-24.05 38.98-23.29 41.58-22.53 43.33-21.13 45.09-19.73 46-17.74 46.9-15.75 46.9-13.28L46.9-13.28Q46.9-9.99 45.37-7.41 43.85-4.83 41.03-3.06 38.21-1.29 34.23-0.38 30.25 0.54 25.37 0.54L25.37 0.54Q22.14 0.54 19.07 0.13 15.99-0.27 13.17-1.01 10.35-1.76 7.8-2.8 5.25-3.83 3.08-5.08L3.08-5.08ZM53.15-9.08L53.15-9.08Q53.15-11.16 54.05-12.87 54.95-14.58 56.76-15.81 58.57-17.04 61.26-17.71 63.96-18.38 67.55-18.38L67.55-18.38Q70.21-18.38 73.15-17.99 76.1-17.6 79.22-16.8L79.22-16.8Q79.1-18.16 78.39-19.32 77.68-20.48 76.43-21.33 75.17-22.17 73.4-22.63 71.63-23.1 69.38-23.1L69.38-23.1Q68.16-23.1 66.7-22.95 65.23-22.8 63.67-22.51 62.11-22.22 60.58-21.78 59.06-21.34 57.74-20.73L57.74-20.73 55.54-26.66Q57.18-27.25 59.04-27.73 60.91-28.22 62.86-28.58 64.82-28.93 66.77-29.13 68.72-29.32 70.55-29.32L70.55-29.32Q78.64-29.32 82.57-25.2 86.5-21.07 86.5-12.55L86.5-12.55 86.5 0 79.27 0 79.27-2.71Q78.15-2.05 76.82-1.46 75.49-0.88 73.92-0.44 72.36 0 70.57 0.26 68.77 0.51 66.77 0.51L66.77 0.51Q63.4 0.51 60.85-0.22 58.3-0.95 56.59-2.25 54.88-3.54 54.01-5.29 53.15-7.03 53.15-9.08ZM60.76-9.33L60.76-9.33Q60.76-8.62 61.13-7.97 61.5-7.32 62.3-6.82 63.11-6.32 64.37-6.02 65.62-5.71 67.4-5.71L67.4-5.71Q69.31-5.71 71.09-6.05 72.87-6.4 74.41-6.96 75.95-7.52 77.19-8.25 78.44-8.98 79.27-9.77L79.27-9.77 79.27-11.04Q77.61-11.5 75.99-11.82 74.36-12.13 72.89-12.32 71.41-12.5 70.1-12.57 68.8-12.65 67.82-12.65L67.82-12.65Q65.79-12.65 64.45-12.38 63.11-12.11 62.28-11.66 61.45-11.21 61.11-10.6 60.76-9.99 60.76-9.33ZM100.39 0L100.39-23.39 93.43-23.39 93.43-28.81 100.39-28.81 100.39-37.77 107.61-37.77 107.61-28.81 114.57-28.81 114.57-23.39 107.61-23.39 107.61 0 100.39 0ZM121.75 9.72L124.43 3.61Q125.55 4.35 126.87 4.91 128.19 5.47 129.62 5.83 131.05 6.2 132.54 6.38 134.03 6.57 135.49 6.57L135.49 6.57Q140.47 6.57 143.17 4.43 145.87 2.29 145.87-1.98L145.87-1.98 145.87-2.95Q144.91-2.29 143.73-1.75 142.55-1.2 141.19-0.81 139.84-0.42 138.33-0.21 136.83 0 135.3 0L135.3 0Q132 0 129.4-0.96 126.8-1.93 125-3.8 123.21-5.66 122.26-8.4 121.31-11.13 121.31-14.65L121.31-14.65 121.31-28.81 128.51-28.81 128.51-16.65Q128.51-11.43 130.5-8.95 132.49-6.47 136.78-6.47L136.78-6.47Q139.81-6.47 142.14-7.53 144.47-8.59 145.87-10.25L145.87-10.25 145.87-28.81 153.09-28.81 153.09-3.3Q153.09 0.83 151.92 3.87 150.75 6.91 148.52 8.91 146.28 10.91 143.03 11.9 139.79 12.89 135.66 12.89L135.66 12.89Q131.63 12.89 128.14 12.04 124.65 11.18 121.75 9.72L121.75 9.72ZM161.07-9.08L161.07-9.08Q161.07-11.16 161.98-12.87 162.88-14.58 164.69-15.81 166.49-17.04 169.19-17.71 171.89-18.38 175.48-18.38L175.48-18.38Q178.14-18.38 181.08-17.99 184.02-17.6 187.15-16.8L187.15-16.8Q187.03-18.16 186.32-19.32 185.61-20.48 184.35-21.33 183.1-22.17 181.33-22.63 179.56-23.1 177.31-23.1L177.31-23.1Q176.09-23.1 174.62-22.95 173.16-22.8 171.6-22.51 170.03-22.22 168.51-21.78 166.98-21.34 165.66-20.73L165.66-20.73 163.47-26.66Q165.1-27.25 166.97-27.73 168.84-28.22 170.79-28.58 172.74-28.93 174.7-29.13 176.65-29.32 178.48-29.32L178.48-29.32Q186.56-29.32 190.49-25.2 194.42-21.07 194.42-12.55L194.42-12.55 194.42 0 187.2 0 187.2-2.71Q186.07-2.05 184.74-1.46 183.41-0.88 181.85-0.44 180.29 0 178.49 0.26 176.7 0.51 174.7 0.51L174.7 0.51Q171.33 0.51 168.78-0.22 166.23-0.95 164.52-2.25 162.81-3.54 161.94-5.29 161.07-7.03 161.07-9.08ZM168.69-9.33L168.69-9.33Q168.69-8.62 169.06-7.97 169.42-7.32 170.23-6.82 171.03-6.32 172.29-6.02 173.55-5.71 175.33-5.71L175.33-5.71Q177.24-5.71 179.02-6.05 180.8-6.4 182.34-6.96 183.88-7.52 185.12-8.25 186.37-8.98 187.2-9.77L187.2-9.77 187.2-11.04Q185.54-11.5 183.91-11.82 182.29-12.13 180.81-12.32 179.34-12.5 178.03-12.57 176.72-12.65 175.75-12.65L175.75-12.65Q173.72-12.65 172.38-12.38 171.03-12.11 170.2-11.66 169.37-11.21 169.03-10.6 168.69-9.99 168.69-9.33ZM204.16 0L204.16-28.81 211.39-28.81 211.39-26.37Q214.1-28.03 216.67-28.67 219.25-29.32 221.72-29.32L221.72-29.32Q225.16-29.32 228.04-28.22 230.92-27.12 232.97-24.9L232.97-24.9Q234.56-26.12 236.1-26.97 237.63-27.81 239.17-28.33 240.71-28.86 242.3-29.09 243.88-29.32 245.57-29.32L245.57-29.32Q249.11-29.32 251.99-28.36 254.87-27.39 256.91-25.49 258.95-23.58 260.06-20.74 261.17-17.9 261.17-14.16L261.17-14.16 261.17 0 253.97 0 253.97-12.99Q253.97-15.36 253.3-17.22 252.62-19.09 251.42-20.37 250.21-21.66 248.53-22.33 246.86-23 244.86-23L244.86-23Q243.76-23 242.61-22.79 241.47-22.58 240.38-22.14 239.29-21.7 238.34-21.03 237.39-20.36 236.68-19.46L236.68-19.46 236.68 0 229.48 0 229.48-12.99Q229.48-15.36 228.81-17.22 228.14-19.09 226.93-20.37 225.72-21.66 224.02-22.33 222.33-23 220.3-23L220.3-23Q219.05-23 217.8-22.74 216.54-22.49 215.38-22.02 214.22-21.56 213.21-20.9 212.19-20.24 211.39-19.41L211.39-19.41 211.39 0 204.16 0Z" opacity="1" transform="matrix(1,0,0,1,0,0)" fill="#fbfbf8" class="wordmark-text-0" data-fill-palette-color="primary" id="text-0"></path></svg></g></svg></g></svg></g></svg></g></svg></g></svg></g></svg></g><path d="M205.246 93.196L205.246 32.455 387.536 32.455 387.536 214.745 205.246 214.745 205.246 154.004 209.647 154.004 209.647 210.344 383.134 210.344 383.134 36.856 209.647 36.856 209.647 93.196Z" fill="#fbfbf8" stroke="transparent" data-fill-palette-color="primary"></path></svg></g><defs></defs></svg><rect width="395.52" height="247.2" fill="none" stroke="none" visibility="hidden"></rect></g></svg></g></svg>